<svg height="511pt" viewBox="0 -10 512 511" width="511pt" xmlns="http://www.w3.org/2000/svg"><path d="M499.6 188.5a26 26 0 00-22.4-17.9l-141.4-12.8L280 26.9a26 26 0 00-47.8 0l-56 130.9-141.3 12.8A26 26 0 0020 216.2L127 309.8 95.4 448.6a26 26 0 0038.7 28.2l121.9-73 121.9 73a26 26 0 0038.7-28.2L385.1 310 492 216.2a26 26 0 007.6-27.7zm0 0" fill="#ffc107"/><path d="M114.6 491.1A27.2 27.2 0 0188.1 458l33-145.1-111.8-98a27.2 27.2 0 0115.4-47.6l147.9-13.4L231 17a27.2 27.2 0 0150 0l58.4 136.8 147.8 13.4a27.2 27.2 0 0115.5 47.6l-111.7 98 33 145a27.2 27.2 0 01-40.5 29.4L256 411.1l-127.5 76.2a27 27 0 01-13.9 3.8zM256 378.3c4.8 0 9.6 1.3 14 3.8l120.2 72-31-137c-2.3-9.7 1-19.9 8.6-26.5l105.4-92.5-139.5-12.7c-10-.9-18.7-7.2-22.6-16.5L256 40l-55.2 129a27 27 0 01-22.5 16.5L38.7 198l105.5 92.5a27.2 27.2 0 018.6 26.5l-31 137L242 382c4.3-2.5 9.1-3.8 14-3.8zm-84.6-221.9zm169.2 0zm0 0"/></svg>